<svg width="24" height="24" viewBox="0 0 24 24" fill="none" xmlns="http://www.w3.org/2000/svg">
<path d="M12.0004 3.27271C9.63027 3.27271 9.33282 3.28307 8.40194 3.32543C7.47288 3.36798 6.83872 3.51507 6.28383 3.73089C5.70984 3.9538 5.22295 4.25198 4.73787 4.73725C4.25243 5.22234 3.95426 5.70925 3.73063 6.28307C3.51427 6.83816 3.367 7.47252 3.32519 8.40125C3.28355 9.33216 3.27264 9.6298 3.27264 12C3.27264 14.3702 3.28319 14.6667 3.32537 15.5976C3.3681 16.5267 3.51518 17.1609 3.73081 17.7158C3.9539 18.2898 4.25207 18.7767 4.73733 19.2618C5.22222 19.7472 5.70912 20.0462 6.28273 20.2691C6.83799 20.4849 7.47233 20.632 8.40122 20.6745C9.3321 20.7169 9.62936 20.7272 11.9993 20.7272C14.3696 20.7272 14.6661 20.7169 15.597 20.6745C16.5261 20.632 17.161 20.4849 17.7162 20.2691C18.29 20.0462 18.7762 19.7472 19.2611 19.2618C19.7465 18.7767 20.0447 18.2898 20.2683 17.716C20.4828 17.1609 20.6301 16.5265 20.6738 15.5978C20.7156 14.6669 20.7265 14.3702 20.7265 12C20.7265 9.6298 20.7156 9.33234 20.6738 8.40143C20.6301 7.47234 20.4828 6.83816 20.2683 6.28325C20.0447 5.70925 19.7465 5.22234 19.2611 4.73725C18.7756 4.2518 18.2902 3.95361 17.7157 3.73089C17.1593 3.51507 16.5248 3.36798 15.5957 3.32543C14.6648 3.28307 14.3685 3.27271 11.9977 3.27271H12.0004ZM11.2175 4.84543C11.4499 4.84507 11.7091 4.84543 12.0004 4.84543C14.3305 4.84543 14.6067 4.8538 15.5268 4.89561C16.3777 4.93452 16.8395 5.07671 17.1471 5.19616C17.5544 5.35434 17.8447 5.54343 18.15 5.84889C18.4555 6.15434 18.6445 6.44525 18.8031 6.85252C18.9225 7.1598 19.0649 7.62161 19.1036 8.47252C19.1454 9.39252 19.1545 9.66889 19.1545 11.998C19.1545 14.3271 19.1454 14.6034 19.1036 15.5234C19.0647 16.3743 18.9225 16.8362 18.8031 17.1434C18.6449 17.5507 18.4555 17.8407 18.15 18.146C17.8446 18.4514 17.5546 18.6405 17.1471 18.7987C16.8399 18.9187 16.3777 19.0605 15.5268 19.0994C14.6068 19.1412 14.3305 19.1503 12.0004 19.1503C9.67009 19.1503 9.39391 19.1412 8.47394 19.0994C7.62306 19.0602 7.16125 18.918 6.85344 18.7985C6.44618 18.6403 6.15528 18.4513 5.84984 18.1458C5.54439 17.8403 5.35531 17.5502 5.19677 17.1427C5.07732 16.8354 4.93496 16.3736 4.89623 15.5227C4.85441 14.6027 4.84605 14.3263 4.84605 11.9958C4.84605 9.66525 4.85441 9.39034 4.89623 8.47034C4.93514 7.61943 5.07732 7.15761 5.19677 6.84998C5.35494 6.4427 5.54439 6.1518 5.84984 5.84634C6.15528 5.54089 6.44618 5.3518 6.85344 5.19325C7.16107 5.07325 7.62306 4.93143 8.47394 4.89234C9.27901 4.85598 9.591 4.84507 11.2175 4.84325V4.84543ZM16.6588 6.29452C16.0806 6.29452 15.6115 6.76307 15.6115 7.34143C15.6115 7.91961 16.0806 8.3887 16.6588 8.3887C17.2369 8.3887 17.706 7.91961 17.706 7.34143C17.706 6.76325 17.2369 6.29416 16.6588 6.29416V6.29452ZM12.0004 7.51816C9.52536 7.51816 7.5187 9.52489 7.5187 12C7.5187 14.4751 9.52536 16.4809 12.0004 16.4809C14.4754 16.4809 16.4813 14.4751 16.4813 12C16.4813 9.52489 14.4752 7.51816 12.0002 7.51816H12.0004ZM12.0004 9.09089C13.6069 9.09089 14.9094 10.3932 14.9094 12C14.9094 13.6065 13.6069 14.9091 12.0004 14.9091C10.3937 14.9091 9.09138 13.6065 9.09138 12C9.09138 10.3932 10.3937 9.09089 12.0004 9.09089Z" fill="#4B5563"/>
</svg>
