<svg width="24" height="24" viewBox="0 0 24 24" fill="none" xmlns="http://www.w3.org/2000/svg">
<path fill-rule="evenodd" clip-rule="evenodd" d="M18.6615 9.07607C18.6673 9.22598 18.6692 9.37582 18.6692 9.52572C18.6692 14.0705 15.4722 19.3171 9.626 19.3171C7.83015 19.3171 6.16026 18.7447 4.7533 17.7704C5.002 17.7976 5.25459 17.8181 5.51105 17.8181C7.00006 17.8181 8.37149 17.2661 9.45934 16.3394C8.06852 16.319 6.89412 15.3174 6.48908 13.9546C6.68352 13.9955 6.88377 14.016 7.08855 14.016C7.3773 14.016 7.65766 13.9752 7.92639 13.8934C6.47098 13.58 5.37474 12.19 5.37474 10.5207C5.37474 10.5002 5.37474 10.4934 5.37474 10.4797C5.80368 10.7318 6.29463 10.8885 6.81594 10.9089C5.96194 10.2889 5.40057 9.23278 5.40057 8.04038C5.40057 7.41352 5.5569 6.8207 5.83209 6.30967C7.39926 8.39466 9.74229 9.76424 12.3837 9.90733C12.3295 9.65522 12.3017 9.38955 12.3017 9.12382C12.3017 7.22279 13.7248 5.68286 15.4806 5.68286C16.3947 5.68286 17.2203 6.09856 17.7997 6.7663C18.5252 6.6164 19.2048 6.33024 19.8197 5.93505C19.5814 6.73907 19.0781 7.41348 18.4205 7.83593C19.0639 7.75417 19.6776 7.57034 20.2467 7.29779C19.8197 7.98597 19.2823 8.5923 18.6615 9.07607Z" fill="#4B5563"/>
</svg>
