<svg width="55" height="32" viewBox="0 0 55 32" fill="none" xmlns="http://www.w3.org/2000/svg">
<path d="M5.42991 22L5.42379 22.006C2.57085 22.0091 -0.00148304 23.8893 6.41509e-07 26.5003C-0.00148304 29.1139 2.57363 31.0009 5.42991 31C5.43232 31 5.43418 31 5.43659 31C6.6673 30.9995 7.84368 30.6582 8.809 30.0253C9.21627 29.7585 10.0438 29.4844 10.0614 29.4844H10.5898C10.9711 29.4836 11.3357 29.3373 11.6011 29.0785C11.8665 28.82 12.0099 28.4712 11.9995 28.111C11.9985 28.0742 11.9995 28.0656 11.9995 28.0756V24.925C11.9995 24.9339 11.9985 24.9241 11.9995 24.8896C12.0099 24.5293 11.8665 24.1805 11.6011 23.9221C11.3357 23.6633 10.9711 23.517 10.5898 23.5161H10.0614C10.0453 23.5161 9.21627 23.2421 8.809 22.9752C7.84368 22.3424 6.6673 22.0011 5.43659 22.0005C5.43418 22.0005 5.43232 22.0005 5.42991 22.0005V22ZM5.42991 24.6693C6.10461 24.6693 6.7413 24.8694 7.19846 25.1685C7.66471 25.4744 8.43956 25.6699 9.17398 25.87V27.1242C8.43956 27.3243 7.66471 27.5256 7.19846 27.8315C6.74186 28.1311 6.10461 28.3249 5.42991 28.3249C3.84663 28.3258 2.82493 27.3807 2.8253 26.5003C2.82493 25.6198 3.84663 24.6688 5.42991 24.6693Z" fill="#454545"/>
<path d="M45.5 26C44.6798 26 44.0116 26.6457 44 27.4497C44 27.4409 44.001 27.4586 44 27.4775V27.5298L44.0142 27.5159C44.0061 28.3271 44.6702 28.9915 45.498 29H45.5C46.3068 28.9855 46.9567 28.3478 46.9719 27.557L46.9965 27.5811C46.997 27.5694 46.997 27.5466 46.998 27.5308C46.999 27.5308 46.9996 27.5308 47 27.5308V27.4507C46.9886 26.6466 46.3204 26.001 45.5 26.001V26ZM45.498 26.0608L46.8675 27.4497H44.0811L45.498 26.0608Z" fill="#454545"/>
<path d="M50.0209 22C48.8925 22.0009 47.8128 22.3392 46.9275 22.9723C46.5542 23.2398 45.7956 23.5171 45.78 23.5171H45.296C44.9465 23.5167 44.6114 23.6625 44.3673 23.9209C44.1232 24.1794 43.9913 24.5284 44.0004 24.8888C44.0013 24.9251 44.0021 24.9363 44.0021 24.9251V28.0753C44.0021 28.067 44.003 28.0833 44.0021 28.1035C43.9904 28.4651 44.1218 28.816 44.3656 29.0763C44.6097 29.3361 44.9453 29.4833 45.296 29.4833H45.78C45.7956 29.4833 46.5542 29.7623 46.9275 30.0293C47.8128 30.6629 48.8925 30.9995 50.0209 31C52.6386 31 55 29.1154 55 26.5016C55.0008 23.8873 52.6391 21.9991 50.0209 22ZM50.0209 24.6716C51.4719 24.6711 52.4092 25.6194 52.4089 26.5002C52.4092 27.381 51.4719 28.3273 50.0209 28.327C49.4025 28.3264 48.8233 28.1326 48.4046 27.8328C47.9498 27.5075 47.3305 27.1813 46.5933 26.9924V26.0043C47.3305 25.8159 47.9498 25.4897 48.4046 25.1644C48.8233 24.8646 49.4025 24.6708 50.0209 24.6702V24.6716Z" fill="#454545"/>
<path d="M14.2097 20C11.902 20 10 21.9459 10 24.3064V27.6934C10 30.0545 11.902 32 14.2097 32H42.7899C45.0977 32 47 30.0545 47 27.6934V24.3064C47 21.9459 45.0977 20 42.7899 20H14.2097ZM14.2097 22.8742H42.7899C43.5898 22.8742 44.1901 23.4882 44.1901 24.3064V27.6934C44.1901 28.5122 43.5898 29.1258 42.7899 29.1258H14.2097C13.4098 29.1258 12.8099 28.5122 12.8099 27.6934V24.3064C12.8099 23.4882 13.4098 22.8742 14.2097 22.8742Z" fill="#454545"/>
<path d="M27.9965 0C23.7224 0.00317704 20.2072 2.67169 18.5464 6.36727C17.4442 5.93131 16.3363 5.46676 15.1368 5.46729C10.1176 5.46729 6.00091 9.40149 6 14.2371C6.00091 19.0727 10.1176 23 15.1368 23H40.8632C45.8824 23 49.9991 19.0727 50 14.2371C49.9991 9.40149 45.8824 5.46729 40.8632 5.46729C39.6641 5.46764 38.5549 5.93078 37.454 6.36727C35.7899 2.67222 32.2714 0 27.9965 0ZM27.9965 2.68705C31.5508 2.68705 34.6435 4.95403 35.5786 8.214C35.6941 8.61518 35.9943 8.94188 36.3923 9.09879C36.7898 9.25553 37.24 9.22429 37.6103 9.0146C38.5926 8.45845 39.7195 8.16158 40.8632 8.16069C44.4054 8.16122 47.2244 10.8749 47.2248 14.2371C47.2244 17.5987 44.4054 20.313 40.8632 20.313H15.1368C11.5944 20.313 8.76903 17.5987 8.76867 14.2371C8.76903 10.8749 11.5944 8.16122 15.1368 8.16069C16.2823 8.16069 17.406 8.45704 18.3895 9.0146C18.76 9.22429 19.2102 9.25553 19.6077 9.09879C20.0057 8.94188 20.3059 8.61518 20.4214 8.214C21.3556 4.95526 24.4439 2.6897 27.9965 2.68705Z" fill="#454545"/>
<path d="M19.2898 7.00164C18.9303 7.01932 18.5926 7.17826 18.3511 7.44292C18.1097 7.70776 17.9839 8.0571 18.0017 8.41423L18.2888 14.7189C18.306 15.076 18.4661 15.4114 18.7325 15.6511C18.9992 15.891 19.3509 16.016 19.7104 15.9984C20.4559 15.9621 21.0319 15.334 20.9986 14.593L20.7115 8.288C20.6957 7.92999 20.5365 7.59284 20.2695 7.35152C20.0029 7.10984 19.6503 6.98396 19.2898 7.00164Z" fill="#454545"/>
<path d="M36.7244 7.00131C35.7287 7.03438 34.9575 7.66398 35.0018 8.40727L35.3924 14.7191C35.4414 15.4601 36.2829 16.032 37.2749 15.9986C38.2711 15.9655 39.0425 15.3365 38.9982 14.5932L38.6076 8.28775C38.5633 7.54446 37.7206 6.96878 36.7244 7.00131Z" fill="#454545"/>
</svg>
